<svg xmlns="http://www.w3.org/2000/svg" preserveAspectRatio="none" fill="currentColor" fill-rule="evenodd" viewBox="0 0 1000 241"><path d="M0 240.937V106.668a38.46 38.46 0 0 1 38.46-38.459h.003a38.463 38.463 0 0 1 27.196 11.264 38.462 38.462 0 0 1 11.264 27.195v134.269H0Zm76.923 0V77.822a38.46 38.46 0 0 1 38.46-38.46h.004a38.46 38.46 0 0 1 38.459 38.46v163.115H76.923Zm76.923 0V145.13a38.457 38.457 0 0 1 38.46-38.46h.004a38.46 38.46 0 0 1 38.459 38.46v95.807h-76.923Zm76.923 0V106.668a38.46 38.46 0 0 1 38.46-38.459h.004c10.2 0 19.982 4.052 27.195 11.264a38.462 38.462 0 0 1 11.264 27.195v134.269h-76.923Zm76.923 0V38.459A38.46 38.46 0 0 1 346.152 0h.004c10.2 0 19.982 4.052 27.195 11.264a38.462 38.462 0 0 1 11.264 27.195v202.478h-76.923Zm76.923 0V68.207a38.457 38.457 0 0 1 38.46-38.46h.004a38.46 38.46 0 0 1 38.459 38.46v172.73h-76.923Zm76.923 0V125.899a38.46 38.46 0 0 1 38.46-38.46h.004a38.46 38.46 0 0 1 38.46 38.46v115.038h-76.924Zm76.924 0V88.135a38.462 38.462 0 0 1 38.459-38.46h.004a38.46 38.46 0 0 1 38.46 38.46v152.802h-76.923Zm76.923 0v-57.346c0-10.2 4.052-19.982 11.264-27.195a38.462 38.462 0 0 1 27.195-11.264h.004a38.46 38.46 0 0 1 38.46 38.459v57.346h-76.923Zm76.923 0V125.899a38.462 38.462 0 0 1 38.459-38.46h.004a38.457 38.457 0 0 1 38.46 38.46v115.038h-76.923Zm76.923 0V145.13a38.46 38.46 0 0 1 38.459-38.46h.004a38.457 38.457 0 0 1 38.46 38.46v95.807h-76.923Zm76.923 0V107.366a38.46 38.46 0 0 1 38.459-38.46h.004a38.457 38.457 0 0 1 38.46 38.46v133.571h-76.923Zm76.923 0V68.207a38.46 38.46 0 0 1 38.46-38.46h.003a38.457 38.457 0 0 1 38.46 38.46v172.73h-76.923Z"/></svg>