<svg xmlns="http://www.w3.org/2000/svg" preserveAspectRatio="none" fill="currentColor" fill-rule="evenodd" viewBox="0 0 1000 223"><path d="M0 210.447s79.651-4.805 101.666-23.515c22.016-18.71 6.662-74.564 30.427-88.746 23.765-14.182 83.08 15.826 112.161 3.656 29.081-12.171 34.389-69.224 62.326-76.68 27.937-7.455 73.059 36.139 105.296 31.945C444.113 52.914 470.625 0 500 0c29.375 0 55.887 52.914 88.124 57.107 32.237 4.194 77.359-39.4 105.296-31.945 27.937 7.456 33.245 64.509 62.326 76.68 29.081 12.17 88.396-17.838 112.161-3.656s8.411 70.036 30.427 88.746C920.349 205.642 1000 210.447 1000 210.447v12.497H0v-12.497Z"/></svg>