<svg xmlns="http://www.w3.org/2000/svg" preserveAspectRatio="none" fill="currentColor" fill-rule="evenodd" viewBox="0 0 2000 320"><path d="M0 320v-55c0-6.63 2.634-12.989 7.322-17.678A25.004 25.004 0 0125 240c13.807 0 25-11.193 25-25V55c0-13.807 11.193-25 25-25 6.63 0 12.989 2.634 17.678 7.322A25.004 25.004 0 01100 55v50c0 6.63 2.634 12.989 7.322 17.678A25.004 25.004 0 00125 130c13.807 0 25-11.193 25-25V25c0-13.807 11.193-25 25-25 6.63 0 12.989 2.634 17.678 7.322A25.004 25.004 0 01200 25v30c0 6.63 2.634 12.989 7.322 17.678A25.004 25.004 0 00225 80c6.63 0 12.989 2.634 17.678 7.322A25.004 25.004 0 01250 105v50c0 6.63 2.634 12.989 7.322 17.678A25.004 25.004 0 00275 180c13.807 0 25 11.193 25 25v60c0 6.63 2.634 12.989 7.322 17.678A25.004 25.004 0 00325 290c13.807 0 25-11.193 25-25V85c0-13.807 11.193-25 25-25s25-11.193 25-25 11.193-25 25-25 25 11.193 25 25v90c0 13.807 11.193 25 25 25 6.63 0 12.989 2.634 17.678 7.322A25.004 25.004 0 01500 175v50c0 6.63 2.634 12.989 7.322 17.678A25.004 25.004 0 00525 250c13.807 0 25-11.193 25-25V85c0-13.807 11.193-25 25-25 6.63 0 12.989 2.634 17.678 7.322A25.004 25.004 0 01600 85v10c0 6.63 2.634 12.989 7.322 17.678A25.004 25.004 0 00625 120c13.807 0 25 11.193 25 25v60c0 6.63 2.634 12.989 7.322 17.678A25.004 25.004 0 00675 230c13.807 0 25-11.193 25-25V65c0-13.807 11.193-25 25-25h5a20 20 0 0020-20 20 20 0 0120-20h5c6.63 0 12.989 2.634 17.678 7.322A25.004 25.004 0 01800 25v190c0 6.63 2.634 12.989 7.322 17.678A25.004 25.004 0 00825 240c13.807 0 25-11.193 25-25V75c0-13.807 11.193-25 25-25s25 11.193 25 25v60c0 6.63 2.634 12.989 7.322 17.678A25.004 25.004 0 00925 160c13.807 0 25-11.193 25-25V25c0-6.63 2.634-12.989 7.322-17.678a25.004 25.004 0 0135.356 0A25.004 25.004 0 011000 25v190a24.994 24.994 0 0025 25c13.81 0 25-11.193 25-25V55c0-13.807 11.19-25 25-25a24.994 24.994 0 0125 25v50a24.994 24.994 0 0025 25c13.81 0 25-11.193 25-25V25c0-13.807 11.19-25 25-25a24.994 24.994 0 0125 25v30a24.994 24.994 0 0025 25 24.994 24.994 0 0125 25v50a24.994 24.994 0 0025 25c13.81 0 25 11.193 25 25v60a24.994 24.994 0 0025 25c13.81 0 25-11.193 25-25V85c0-13.807 11.19-25 25-25s25-11.193 25-25 11.19-25 25-25 25 11.193 25 25v90c0 13.807 11.19 25 25 25a24.994 24.994 0 0125 25v50a24.994 24.994 0 0025 25c13.81 0 25-11.193 25-25V85c0-13.807 11.19-25 25-25a24.994 24.994 0 0125 25v10a24.994 24.994 0 0025 25c13.81 0 25 11.193 25 25v60a24.994 24.994 0 0025 25c13.81 0 25-11.193 25-25V65c0-13.807 11.19-25 25-25h5a20 20 0 0020-20 20.006 20.006 0 0120-20h5a24.994 24.994 0 0125 25v190a24.994 24.994 0 0025 25c13.81 0 25-11.193 25-25V75c0-13.807 11.19-25 25-25s25 11.193 25 25v60a24.994 24.994 0 0025 25c13.81 0 25-11.193 25-25V25a24.994 24.994 0 0125-25c13.81 0 25 11.193 25 25v295H0z"/></svg>