<svg xmlns="http://www.w3.org/2000/svg" preserveAspectRatio="none" fill="currentColor" fill-rule="evenodd" viewBox="0 0 2000 320"><path d="M0 320v-55l25-25 25-25V55l25-25 25 25v50l25 25 25-25V25l25-25 25 25v30l25 25 25 25v50l25 25 25 25v60l25 25 25-25V85l25-25 25-25 25-25 25 25v90l25 25 25 25v50l25 25 25-25V85l25-25 25 25v10l25 25 25 25v60l25 25 25-25V65l25-25h5l20-20 20-20h5l25 25v190l25 25 25-25V75l25-25 25 25v60l25 25 25-25V25l25-25 25 25v190l25 25 25-25V55l25-25 25 25v50l25 25 25-25V25l25-25 25 25v30l25 25 25 25v50l25 25 25 25v60l25 25 25-25V85l25-25 25-25 25-25 25 25v90l25 25 25 25v50l25 25 25-25V85l25-25 25 25v10l25 25 25 25v60l25 25 25-25V65l25-25h5l20-20 20-20h5l25 25v190l25 25 25-25V75l25-25 25 25v60l25 25 25-25V25l25-25 25 25v295H0z"/></svg>