<svg xmlns="http://www.w3.org/2000/svg" preserveAspectRatio="xMidYMin slice" fill="currentColor" viewBox="0 0 4200 512"><path d="m200 500 100-100 100 100 100-100 100 100 100-100 100 100 100-100 100 100 100-100 100 100 100-100 100 100 100-100 100 100 100-100 100 100 100-100 100 100 100-100 100 100 100-100 100 100 100-100 100 100 100-100 100 100 100-100 100 100 100-100 100 100 100-100 100 100 100-100 100 100 100-100 100 100 100-100 100 100 100-100 100 100V400l-100-100-100 100-100-100-100 100-100-100-100 100-100-100-100 100-100-100-100 100-100-100-100 100-100-100-100 100-100-100-100 100-100-100-100 100-100-100-100 100-100-100-100 100-100-100-100 100-100-100-100 100-100-100-100 100-100-100-100 100-100-100-100 100-100-100-100 100-100-100-100 100-100-100-100 100-100-100-100 100-100-100L0 400v100l100-100z" opacity=".75" style="isolation:isolate"/><path d="m4200 500-100-100-100 100-100-100-100 100-100-100-100 100-100-100-100 100-100-100-100 100-100-100-100 100-100-100-100 100-100-100-100 100-100-100-100 100-100-100-100 100-100-100-100 100-100-100-100 100-100-100-100 100-100-100-100 100-100-100-100 100-100-100-100 100-100-100-100 100-100-100-100 100-100-100-100 100-100-100-100 100-100-100L0 500v12h4200z"/><path d="m200 400 100-100 100 100 100-100 100 100 100-100 100 100 100-100 100 100 100-100 100 100 100-100 100 100 100-100 100 100 100-100 100 100 100-100 100 100 100-100 100 100 100-100 100 100 100-100 100 100 100-100 100 100 100-100 100 100 100-100 100 100 100-100 100 100 100-100 100 100 100-100 100 100 100-100 100 100 100-100 100 100V300l-100-100-100 100-100-100-100 100-100-100-100 100-100-100-100 100-100-100-100 100-100-100-100 100-100-100-100 100-100-100-100 100-100-100-100 100-100-100-100 100-100-100-100 100-100-100-100 100-100-100-100 100-100-100-100 100-100-100-100 100-100-100-100 100-100-100-100 100-100-100-100 100-100-100-100 100-100-100-100 100-100-100L0 300v100l100-100z" opacity=".5" /><path d="m200 300 100-100 100 100 100-100 100 100 100-100 100 100 100-100 100 100 100-100 100 100 100-100 100 100 100-100 100 100 100-100 100 100 100-100 100 100 100-100 100 100 100-100 100 100 100-100 100 100 100-100 100 100 100-100 100 100 100-100 100 100 100-100 100 100 100-100 100 100 100-100 100 100 100-100 100 100 100-100 100 100V200l-100-100-100 100-100-100-100 100-100-100-100 100-100-100-100 100-100-100-100 100-100-100-100 100-100-100-100 100-100-100-100 100-100-100-100 100-100-100-100 100-100-100-100 100-100-100-100 100-100-100-100 100-100-100-100 100-100-100-100 100-100-100-100 100-100-100-100 100-100-100-100 100-100-100-100 100-100-100-100 100-100-100L0 200v100l100-100z" opacity=".25" /><path d="m200 200 100-100 100 100 100-100 100 100 100-100 100 100 100-100 100 100 100-100 100 100 100-100 100 100 100-100 100 100 100-100 100 100 100-100 100 100 100-100 100 100 100-100 100 100 100-100 100 100 100-100 100 100 100-100 100 100 100-100 100 100 100-100 100 100 100-100 100 100 100-100 100 100 100-100 100 100 100-100 100 100V100L4100 0l-100 100L3900 0l-100 100L3700 0l-100 100L3500 0l-100 100L3300 0l-100 100L3100 0l-100 100L2900 0l-100 100L2700 0l-100 100L2500 0l-100 100L2300 0l-100 100L2100 0l-100 100L1900 0l-100 100L1700 0l-100 100L1500 0l-100 100L1300 0l-100 100L1100 0l-100 100L900 0 800 100 700 0 600 100 500 0 400 100 300 0 200 100 100 0 0 100v100l100-100z" opacity=".12" /></svg>
